# xmcd
#
# Track frame offsets: 
#        150
#        13262
#        27717
#        42685
#        57190
#        81997
#        92900
#        110165
#        129230
#        143475
#        160512
#        175707
#
# Disc length: 2347 seconds
#
# Revision: 3
# Processed by: cddbd v1.5.1PL0 Copyright (c) Steve Scherf et al.
# Submitted via: ExactAudioCopy v0.95a5
#
DISCID=a009290c
DTITLE=Candye Kane - Knockout
DYEAR=1995
DGENRE=blues
TTITLE0=I'm on a Bender
TTITLE1=Bigger and Better
TTITLE2=Watching the River Flow
TTITLE3=The Blues I Feel for You
TTITLE4=Sharktown
TTITLE5=Cheek to Cheek
TTITLE6=We Can Love
TTITLE7=Call Me
TTITLE8=Easy Money
TTITLE9=There's Nobody Home
TTITLE10=Get It Over Baby
TTITLE11=Unknown
EXTD=
EXTT0=
EXTT1=
EXTT2=
EXTT3=
EXTT4=
EXTT5=
EXTT6=
EXTT7=
EXTT8=
EXTT9=
EXTT10=
EXTT11=
PLAYORDER=
